<mxfile host="app.diagrams.net" agent="Mozilla/5.0 (Windows NT 10.0; Win64; x64) AppleWebKit/537.36 (KHTML, like Gecko) Chrome/134.0.0.0 Safari/537.36" version="26.1.1">
  <diagram name="Página-1" id="1ObV2RrAx3m5YrwQ6n0I">
    <mxGraphModel grid="1" page="1" gridSize="10" guides="1" tooltips="1" connect="1" arrows="1" fold="1" pageScale="1" pageWidth="827" pageHeight="1169" math="0" shadow="0">
      <root>
        <mxCell id="0" />
        <mxCell id="1" parent="0" />
        <mxCell id="JsL4P4mMI02X1jpSXLCn-3" value="" style="edgeStyle=orthogonalEdgeStyle;rounded=0;orthogonalLoop=1;jettySize=auto;html=1;" edge="1" parent="1" source="JsL4P4mMI02X1jpSXLCn-1" target="JsL4P4mMI02X1jpSXLCn-2">
          <mxGeometry relative="1" as="geometry" />
        </mxCell>
        <mxCell id="JsL4P4mMI02X1jpSXLCn-1" value="inicio" style="ellipse;whiteSpace=wrap;html=1;" vertex="1" parent="1">
          <mxGeometry x="354" y="20" width="120" height="80" as="geometry" />
        </mxCell>
        <mxCell id="JsL4P4mMI02X1jpSXLCn-5" value="" style="edgeStyle=orthogonalEdgeStyle;rounded=0;orthogonalLoop=1;jettySize=auto;html=1;" edge="1" parent="1" source="JsL4P4mMI02X1jpSXLCn-2" target="JsL4P4mMI02X1jpSXLCn-4">
          <mxGeometry relative="1" as="geometry" />
        </mxCell>
        <mxCell id="JsL4P4mMI02X1jpSXLCn-2" value="hora = 3&lt;div&gt;minutos = 43&lt;/div&gt;&lt;div&gt;vh = 35&lt;/div&gt;" style="shape=parallelogram;perimeter=parallelogramPerimeter;whiteSpace=wrap;html=1;fixedSize=1;" vertex="1" parent="1">
          <mxGeometry x="354" y="130" width="120" height="60" as="geometry" />
        </mxCell>
        <mxCell id="JsL4P4mMI02X1jpSXLCn-7" value="" style="edgeStyle=orthogonalEdgeStyle;rounded=0;orthogonalLoop=1;jettySize=auto;html=1;" edge="1" parent="1" source="JsL4P4mMI02X1jpSXLCn-4" target="JsL4P4mMI02X1jpSXLCn-6">
          <mxGeometry relative="1" as="geometry" />
        </mxCell>
        <mxCell id="JsL4P4mMI02X1jpSXLCn-4" value="conversão = hora + (minuto/60)&lt;div&gt;salario = (conversao * vh)&lt;/div&gt;" style="whiteSpace=wrap;html=1;" vertex="1" parent="1">
          <mxGeometry x="281" y="220" width="266" height="60" as="geometry" />
        </mxCell>
        <mxCell id="JsL4P4mMI02X1jpSXLCn-9" value="" style="edgeStyle=orthogonalEdgeStyle;rounded=0;orthogonalLoop=1;jettySize=auto;html=1;" edge="1" parent="1" source="JsL4P4mMI02X1jpSXLCn-6" target="JsL4P4mMI02X1jpSXLCn-8">
          <mxGeometry relative="1" as="geometry" />
        </mxCell>
        <mxCell id="JsL4P4mMI02X1jpSXLCn-6" value="resultado" style="shape=document;whiteSpace=wrap;html=1;boundedLbl=1;" vertex="1" parent="1">
          <mxGeometry x="354" y="290" width="120" height="80" as="geometry" />
        </mxCell>
        <mxCell id="JsL4P4mMI02X1jpSXLCn-8" value="fim" style="ellipse;whiteSpace=wrap;html=1;" vertex="1" parent="1">
          <mxGeometry x="374" y="390" width="80" height="80" as="geometry" />
        </mxCell>
      </root>
    </mxGraphModel>
  </diagram>
</mxfile>
